# AST/ASF file generated using VICON BodyLanguage
# -----------------------------------------------
:version 1.10
:name VICON
:units
  mass 1.0
  length 0.45
  angle deg
:documentation
   .ast/.asf automatically generated from VICON data using
   VICON BodyBuilder and BodyLanguage model FoxedUp or BRILLIANT.MOD
:root
   order TX TY TZ RX RY RZ
   axis XYZ
   position 0 0 0  
   orientation 0 0 0 
:bonedata
  begin
     id 1 
     name lhipjoint
     direction 0.627457 -0.725269 0.283342 
     length 2.53237 
     axis 0 0 0  XYZ
  end
  begin
     id 2 
     name lfemur
     direction 0.34202 -0.939693 0  
     length 7.32496  
     axis 0 0 20  XYZ
    dof rx ry rz
    limits (-160.0 20.0)
           (-70.0 70.0)
           (-60.0 70.0)
  end
  begin
     id 3 
     name ltibia
     direction 0.34202 -0.939693 0   
     length 7.69674   
     axis 0 0 20   XYZ
    dof rx
    limits (-10.0 170.0)
  end
  begin
     id 4 
     name lfoot
     direction 0.127289 -0.349722 0.928166   
     length 1.8612   
     axis -90 7.62852e-016 20   XYZ
    dof rx rz
    limits (-45.0 90.0)
           (-70.0 20.0)
  end
  begin
     id 5 
     name ltoes
     direction 1.53561e-011 -4.21864e-011 1   
     length 0.925608   
     axis -90 7.62852e-016 20   XYZ
    dof rx
    limits (-90.0 20.0)
  end
  begin
     id 6 
     name rhipjoint
     direction -0.609094 -0.738725 0.288599   
     length 2.48624  
     axis 0 0 0  XYZ 
  end
  begin
     id 7 
     name rfemur
     direction -0.34202 -0.939693 0   
     length 7.44259   
     axis 0 0 -20   XYZ
    dof rx ry rz
    limits (-160.0 20.0)
           (-70.0 70.0)
           (-70.0 60.0)
  end
  begin
     id 8 
     name rtibia
     direction -0.34202 -0.939693 0   
     length 7.7781   
     axis 0 0 -20   XYZ
    dof rx
    limits (-10.0 170.0)
 end
 begin
     id 9 
     name rfoot
     direction -0.107015 -0.294021 0.949789   
     length 2.14741  
     axis -90 -7.62852e-016 -20   XYZ
    dof rx rz
    limits (-45.0 90.0)
           (-20.0 70.0)
  end
  begin
     id 10 
     name rtoes
     direction -1.53497e-011 -4.21924e-011 1   
     length 1.0706   
     axis -90 -7.62852e-016 -20   XYZ
    dof rx
    limits (-90.0 20.0)
  end
  begin
     id 11 
     name lowerback
     direction -0.0142066 0.998112 -0.0597545   
     length 1.86627   
     axis 0 0 0   XYZ
    dof rx ry rz
    limits (-20.0 45.0)
           (-30.0 30.0)
           (-30.0 30.0)
  end
  begin
     id 12 
     name upperback
     direction 0.00547294 0.999744 0.0219437   
     length 1.86272   
     axis 0 0 0   XYZ
    dof rx ry rz
    limits (-20.0 45.0)
           (-30.0 30.0)
           (-30.0 30.0)
  end
  begin
     id 13 
     name thorax
     direction 0.0116162 0.998704 0.0495538   
     length 1.8703   
     axis 0 0 0   XYZ
    dof rx ry rz
    limits (-20.0 45.0)
           (-30.0 30.0)
           (-30.0 30.0)
  end
  begin
     id 14 
     name lowerneck
     direction -0.0106574 0.998739 0.0490586   
     length 1.8074   
     axis 0 0 0   XYZ
    dof rx ry rz
    limits (-20.0 45.0)
           (-30.0 30.0)
           (-30.0 30.0)
  end
  begin
     id 15 
     name upperneck
     direction 0.030527 0.976587 -0.212944   
     length 1.80681   
     axis 0 0 0   XYZ
    dof rx ry rz
    limits (-20.0 45.0)
           (-30.0 30.0)
           (-30.0 30.0)
  end
  begin
     id 16
     name head
     direction 0.00869225 0.997035 -0.0764531  
     length 1.8313  
     axis 0 0 0   XYZ
    dof rx ry rz
    limits (-20.0 45.0)
           (-30.0 30.0)
           (-30.0 30.0)
  end
  begin
     id 17 
     name lclavicle
     direction 0.915958 0.399447 0.0382386  
     length 3.78965  
     axis 0 0 0   XYZ
    dof ry rz
    limits (-20.0 10.0)
           (0.0 20.0)
  end
  begin
     id 18 
     name lhumerus
     direction 1 -4.48967e-011 3.19303e-027   
     length 4.78095   
     axis -180 -30 -90   XYZ
    dof rx ry rz
    limits (-60.0 90.0)
           (-90.0 90.0)
           (-90.0 90.0)
  end
  begin
     id 19
     name lradius
     direction 1 -4.48967e-011 -3.77974e-027   
     length 3.58615   
     axis -180 -30 -90   XYZ
    dof rx
    limits (-10.0 170.0)
  end
  begin
     id 20
     name lwrist
     direction 1 -4.48927e-011 1.2807e-027   
     length 1.79307   
     axis 1.91374e-015 90 90   XYZ
    dof ry
    limits (-180.0 0.0)
 end
  begin
     id 21 
     name lhand
     direction 1 -4.49036e-011 2.5614e-027   
     length 0.659812   
     axis -1.63439e-015 90 90   XYZ
    dof rx rz
    limits (-90.0 90.0)
           (-45.0 45.0)
  end
  begin
     id 22 
     name lfingers
     direction 1 -4.49052e-011 5.1228e-027   
     length 0.531957   
     axis -3.26879e-015 90 90   XYZ
    dof rx
    limits (0.0 90.0)
  end
  begin
     id 23
     name lthumb
     direction 0.707107 -6.35012e-011 0.707107   
     length 0.763787   
     axis -90 45 2.85299e-015   XYZ
    dof rx rz
    limits (-45.0 45.0)
           (-45.0 45.0)
  end
  begin
     id 24 
     name rclavicle
     direction -0.895351 0.435135 0.0948887   
     length 3.70497  
     axis 0 0 0   XYZ 
    dof ry rz
    limits (-10.0 20.0)
           (-20.0 0.0)
  end
  begin
     id 25 
     name rhumerus
     direction -1 -4.48971e-011 2.38946e-027  
     length 4.48913   
     axis -180 30 90   XYZ
    dof rx ry rz
    limits (-90.0 60.0)
           (-90.0 90.0)
           (-90.0 90.0)
  end
  begin
     id 26 
     name rradius
     direction -1 -4.4895e-011 4.38668e-027   
     length 3.7051   
     axis -180 30 90   XYZ
    dof rx
    limits (-10.0 170.0)
  end
  begin
     id 27 
     name rwrist
     direction -1 -4.49007e-011 1.2807e-027   
     length 1.85255   
     axis 1.91374e-015 -90 -90   XYZ
    dof ry
    limits (-180.0 0.0)
  end
  begin
     id 28
     name rhand
     direction -1 -4.48851e-011 2.5614e-027   
     length 0.449136   
     axis -1.63439e-015 -90 -90   XYZ
    dof rx rz
    limits (-90.0 90.0)
           (-45.0 45.0)
  end
  begin
     id 29
     name rfingers
     direction -1 -4.49128e-011 5.1228e-027   
     length 0.362105   
     axis -3.26879e-015 -90 -90   XYZ
    dof rx
    limits (0.0 90.0)
  end
  begin
     id 30
     name rthumb
     direction -0.707107 -6.34851e-011 0.707107   
     length 0.519912   
     axis -90 -45 -2.85299e-015   XYZ
    dof rx rz
    limits (-45.0 45.0)
           (-45.0 45.0)
  end
:hierarchy
  begin
    root lhipjoint rhipjoint lowerback
    lhipjoint lfemur
    lfemur ltibia
    ltibia lfoot
    lfoot ltoes
    rhipjoint rfemur
    rfemur rtibia
    rtibia rfoot
    rfoot rtoes
    lowerback upperback
    upperback thorax
    thorax lowerneck lclavicle rclavicle
    lowerneck upperneck
    upperneck head
    lclavicle lhumerus
    lhumerus lradius
    lradius lwrist
    lwrist lhand lthumb
    lhand lfingers
    rclavicle rhumerus
    rhumerus rradius
    rradius rwrist
    rwrist rhand rthumb
    rhand rfingers
  end

#!OML:ASF I:\Actors\actors\Patient Classification 2\Patient 1\Session 1\actor1.ASF
:FULLY-SPECIFIED
:DEGREES
72
root -1.15881 18.2043 5.637 0.869936 -5.05373 -3.74858
lowerback 0.278937 2.26128 1.12792
upperback -1.06265 3.02087 -0.493749
thorax -1.1594 1.49669 -1.17304
lowerneck -12.012 -3.31377 1.93965
upperneck 22.0093 -6.19716 4.81348
head 8.98859 -2.24381 0.611865
rclavicle -2.29845e-015 -5.56597e-015
rhumerus -47.0256 -0.799906 -89.2462
rradius 40.0031
rwrist 16.0522
rhand -7.8125 -25.4739
rfingers 7.12502
rthumb 18.0892 -54.6527
lclavicle -2.29845e-015 -5.56597e-015
lhumerus -37.7328 8.22343 86.4709
lradius 31.8258
lwrist -15.6171
lhand -11.9594 -34.276
lfingers 7.12502
lthumb 14.0961 -4.77407
rfemur 7.06816 2.91028 19.9215
rtibia 1.43125e-014
rfoot -16.3694 -9.71275
rtoes 6.76705
lfemur 15.4198 -7.15164 -13.7976
ltibia -15.6865
lfoot -7.081 23.4942
ltoes -3.48435
73
root -1.15577 18.2034 5.64116 0.879998 -5.08741 -3.82183
lowerback 0.267823 2.25308 1.2054
upperback -1.06994 3.01079 -0.470628
thorax -1.15822 1.491 -1.19218
lowerneck -11.9713 -3.30898 1.90311
upperneck 21.9773 -6.18655 4.84632
head 8.97199 -2.24034 0.631054
rclavicle 6.82453e-014 -7.95139e-016
rhumerus -47.0479 -0.791799 -89.2306
rradius 40.0106
rwrist 16.097
rhand -8.06169 -25.4269
rfingers 7.12502
rthumb 17.8495 -54.6277
lclavicle 6.82453e-014 -7.95139e-016
lhumerus -37.7159 8.18502 86.4814
lradius 31.8092
lwrist -15.5013
lhand -11.9108 -34.181
lfingers 7.12502
lthumb 14.143 -4.6824
rfemur 7.0727 2.94508 19.9932
rtibia -2.38542e-014
rfoot -16.4125 -9.7246
rtoes 6.63762
lfemur 15.4557 -7.19189 -13.739
ltibia -15.7164
lfoot -7.14542 23.5669
ltoes -3.58529
74
root -1.15338 18.2027 5.64617 0.890666 -5.13962 -3.85439
lowerback 0.236968 2.24754 1.22364
upperback -1.07419 3.00341 -0.452798
thorax -1.14552 1.48731 -1.18281
lowerneck -11.9558 -3.30622 1.8916
upperneck 21.9726 -6.17642 4.83344
head 8.96707 -2.23849 0.630037
rclavicle -3.26255e-014 1.90833e-014
rhumerus -47.0658 -0.751135 -89.2318
rradius 40.0068
rwrist 16.1028
rhand -8.18304 -25.3958
rfingers 7.12502
rthumb 17.7327 -54.6072
lclavicle -3.26255e-014 1.90833e-014
lhumerus -37.6982 8.12647 86.5037
lradius 31.7982
lwrist -15.3739
lhand -11.8735 -34.1078
lfingers 7.12502
lthumb 14.1789 -4.61173
rfemur 7.07864 2.99796 20.0226
rtibia -6.36111e-015
rfoot -16.4229 -9.73374
rtoes 6.4335
lfemur 15.4881 -7.20081 -13.7239
ltibia -15.7331
lfoot -7.19985 23.5955
ltoes -3.58573
75
root -1.15126 18.2026 5.65122 0.91209 -5.19029 -3.81898
lowerback 0.212953 2.24683 1.16715
upperback -1.09568 3.00175 -0.452123
thorax -1.15704 1.48682 -1.15015
lowerneck -11.9714 -3.32246 1.89177
upperneck 22.0077 -6.19598 4.80503
head 8.98131 -2.2493 0.617773
rclavicle -6.90777e-015 -2.38542e-015
rhumerus -47.1022 -0.706341 -89.231
rradius 40.0251
rwrist 16.0419
rhand -8.08458 -25.4083
rfingers 7.12502
rthumb 17.8275 -54.6111
lclavicle -6.90777e-015 -2.38542e-015
lhumerus -37.7334 8.15538 86.5042
lradius 31.829
lwrist -15.3714
lhand -11.8836 -34.0909
lfingers 7.12502
lthumb 14.1691 -4.59411
rfemur 7.06559 3.05008 19.9735
rtibia 4.77083e-015
rfoot -16.3989 -9.7326
rtoes 6.41251
lfemur 15.4905 -7.18555 -13.7779
ltibia -15.7323
lfoot -7.22148 23.612
ltoes -3.38268
76
root -1.14779 18.2025 5.65649 0.929962 -5.22403 -3.74826
lowerback 0.177709 2.24276 1.08987
upperback -1.10378 2.9952 -0.460825
thorax -1.14922 1.48426 -1.11459
lowerneck -12.0135 -3.33419 1.841
upperneck 22.04 -6.21511 4.84379
head 9.0036 -2.2565 0.636211
rclavicle -2.01021e-014 -9.54166e-015
rhumerus -47.095 -0.676005 -89.2076
rradius 40.0346
rwrist 15.9876
rhand -7.7856 -25.4703
rfingers 7.12502
rthumb 18.1151 -54.6468
lclavicle -2.01021e-014 -9.54166e-015
lhumerus -37.7414 8.28254 86.4907
lradius 31.8349
lwrist -15.481
lhand -11.9326 -34.1404
lfingers 7.12502
lthumb 14.122 -4.64033
rfemur 7.05279 3.08698 19.8767
rtibia 3.18055e-015
rfoot -16.3929 -9.73218
rtoes 6.48685
lfemur 15.4882 -7.29296 -13.8922
ltibia -15.7141
lfoot -7.28394 23.7596
ltoes -3.25863
77
root -1.14378 18.2024 5.6615 0.935882 -5.25189 -3.6941
lowerback 0.136292 2.24404 1.05679
upperback -1.09549 2.99598 -0.480567
thorax -1.11812 1.48514 -1.11428
lowerneck -12.0345 -3.34434 1.82393
upperneck 22.0265 -6.22955 4.86
head 9.00423 -2.26304 0.64251
rclavicle 1.22625e-014 0
rhumerus -47.0634 -0.697507 -89.173
rradius 40.0297
rwrist 16.0085
rhand -7.66402 -25.4914
rfingers 7.12502
rthumb 18.2321 -54.6569
lclavicle 1.22625e-014 0
lhumerus -37.702 8.29507 86.5048
lradius 31.8183
lwrist -15.5283
lhand -11.9616 -34.2018
lfingers 7.12502
lthumb 14.094 -4.69975
rfemur 7.05042 3.11822 19.7977
rtibia 0
rfoot -16.4058 -9.73792
rtoes 6.45926
lfemur 15.4931 -7.37714 -13.99
ltibia -15.6883
lfoot -7.33116 23.8687
ltoes -3.27656
78
root -1.14104 18.2023 5.66573 0.944252 -5.30585 -3.67964
lowerback 0.13238 2.26134 1.06424
upperback -1.09819 3.01889 -0.499039
thorax -1.11672 1.49644 -1.13738
lowerneck -12.0755 -3.34811 1.88444
upperneck 22.0055 -6.23025 4.78497
head 8.99997 -2.26628 0.606337
rclavicle -4.91992e-015 7.95139e-015
rhumerus -47.0518 -0.735273 -89.1535
rradius 40.012
rwrist 16.057
rhand -7.77073 -25.4407
rfingers 7.12502
rthumb 18.1294 -54.6158
lclavicle -4.91992e-015 7.95139e-015
lhumerus -37.6554 8.1898 86.5537
lradius 31.8134
lwrist -15.4777
lhand -11.9444 -34.171
lfingers 7.12502
lthumb 14.1106 -4.67014
rfemur 7.04495 3.17379 19.7712
rtibia -3.18055e-015
rfoot -16.4093 -9.7475
rtoes 6.41502
lfemur 15.503 -7.32929 -14.0188
ltibia -15.6768
lfoot -7.37443 23.8664
ltoes -3.31369
79
root -1.13906 18.2023 5.66963 0.970699 -5.36138 -3.69937
lowerback 0.130369 2.2607 1.075
upperback -1.11913 3.01818 -0.496761
thorax -1.13664 1.49574 -1.14153
lowerneck -12.0938 -3.31808 2.01451
upperneck 21.975 -6.17392 4.61223
head 8.98143 -2.24829 0.532606
rclavicle -4.11981e-014 -5.56597e-015
rhumerus -47.0686 -0.696589 -89.1716
rradius 39.9955
rwrist 16.0661
rhand -7.84868 -25.4207
rfingers 7.12502
rthumb 18.0544 -54.6028
lclavicle -4.11981e-014 -5.56597e-015
lhumerus -37.6432 8.12013 86.5912
lradius 31.8408
lwrist -15.3828
lhand -11.8778 -33.9573
lfingers 7.12502
lthumb 14.1748 -4.46089
rfemur 7.02609 3.22984 19.7865
rtibia -3.18055e-015
rfoot -16.4153 -9.73212
rtoes 6.57215
lfemur 15.5111 -7.31357 -14.0044
ltibia -15.6908
lfoot -7.45789 23.8967
ltoes -3.30314
80
root -1.13683 18.2022 5.67242 0.99866 -5.37519 -3.73014
lowerback 0.106813 2.22062 1.07748
upperback -1.13221 2.96464 -0.486838
thorax -1.13869 1.46892 -1.13165
lowerneck -12.0372 -3.26957 2.2076
upperneck 21.9071 -6.09501 4.41935
head 8.93347 -2.21944 0.445827
rclavicle 2.71217e-014 -8.74653e-015
rhumerus -47.0631 -0.581785 -89.231
rradius 39.9706
rwrist 16.0421
rhand -7.89561 -25.3979
rfingers 7.12502
rthumb 18.0093 -54.5841
lclavicle 2.71217e-014 -8.74653e-015
lhumerus -37.6271 8.19112 86.5486
lradius 31.8372
lwrist -15.3712
lhand -11.8152 -33.85
lfingers 7.12502
lthumb 14.235 -4.35778
rfemur 7.00607 3.24437 19.8136
rtibia -9.54166e-015
rfoot -16.4333 -9.70502
rtoes 6.77512
lfemur 15.515 -7.34282 -13.9795
ltibia -15.7219
lfoot -7.48234 23.9571
ltoes -3.30045
81
root -1.13411 18.2019 5.675 1.01191 -5.36227 -3.76601
lowerback 0.10374 2.18669 1.11638
upperback -1.13239 2.91962 -0.490666
thorax -1.13625 1.44604 -1.15674
lowerneck -12.0094 -3.24508 2.30936
upperneck 21.8611 -6.06595 4.36637
head 8.90734 -2.20527 0.415131
rclavicle 2.42269e-015 5.56597e-015
rhumerus -47.0331 -0.537388 -89.2794
rradius 39.935
rwrist 16.0427
rhand -7.93302 -25.3272
rfingers 7.12502
rthumb 17.9733 -54.5168
lclavicle 2.42269e-015 5.56597e-015
lhumerus -37.5518 8.29601 86.4831
lradius 31.7582
lwrist -15.4582
lhand -11.8004 -33.9736
lfingers 7.12502
lthumb 14.2493 -4.48249
rfemur 7.00439 3.2327 19.8449
rtibia -2.06736e-014
rfoot -16.4515 -9.68853
rtoes 6.83073
lfemur 15.5261 -7.33233 -13.9442
ltibia -15.7546
lfoot -7.46693 23.9505
ltoes -3.2201
82
root -1.13151 18.2017 5.67814 1.01386 -5.36156 -3.79022
lowerback 0.124153 2.17919 1.16537
upperback -1.13326 2.91017 -0.4975
thorax -1.14608 1.44072 -1.19186
lowerneck -12.0458 -3.24861 2.24102
upperneck 21.8787 -6.07789 4.44547
head 8.92525 -2.20685 0.450976
rclavicle 3.26628e-014 2.38542e-015
rhumerus -47.0322 -0.550952 -89.2888
rradius 39.9379
rwrist 16.0418
rhand -7.86218 -25.3438
rfingers 7.12502
rthumb 18.0414 -54.5271
lclavicle 3.26628e-014 2.38542e-015
lhumerus -37.49 8.28835 86.4933
lradius 31.7145
lwrist -15.4858
lhand -11.8156 -33.9504
lfingers 7.12502
lthumb 14.2347 -4.45822
rfemur 7.01625 3.23332 19.8633
rtibia -7.95139e-015
rfoot -16.457 -9.67469
rtoes 6.91413
lfemur 15.5483 -7.31982 -13.9267
ltibia -15.7788
lfoot -7.46793 23.9295
ltoes -3.25083
83
root -1.12888 18.2017 5.68177 1.01567 -5.38965 -3.76554
lowerback 0.128021 2.16984 1.16089
upperback -1.13802 2.8976 -0.509596
thorax -1.15308 1.43434 -1.2019
lowerneck -12.0312 -3.22517 2.18428
upperneck 21.8773 -6.0463 4.50487
head 8.9254 -2.19075 0.484216
rclavicle 2.73329e-015 1.11319e-014
rhumerus -47.0426 -0.523153 -89.2974
rradius 39.946
rwrist 16.031
rhand -7.75003 -25.4438
rfingers 7.12502
rthumb 18.1493 -54.6171
lclavicle 2.73329e-015 1.11319e-014
lhumerus -37.4726 8.2798 86.5145
lradius 31.7054
lwrist -15.4664
lhand -11.7719 -33.7889
lfingers 7.12502
lthumb 14.2768 -4.29966
rfemur 7.01911 3.26312 19.8257
rtibia 1.11319e-014
rfoot -16.4517 -9.68533
rtoes 6.85066
lfemur 15.5716 -7.37759 -13.9781
ltibia -15.7871
lfoot -7.50006 24.0027
ltoes -3.20411
84
root -1.1259 18.2019 5.68541 1.02197 -5.41371 -3.73596
lowerback 0.113738 2.16238 1.15541
upperback -1.13606 2.88728 -0.52583
thorax -1.1428 1.42924 -1.21469
lowerneck -11.9978 -3.19793 2.22704
upperneck 21.8587 -6.0029 4.45525
head 8.9091 -2.17343 0.465976
rclavicle -1.78906e-015 -7.15625e-015
rhumerus -47.0435 -0.514527 -89.3015
rradius 39.9387
rwrist 16.0439
rhand -7.71745 -25.4971
rfingers 7.12502
rthumb 18.1807 -54.6675
lclavicle -1.78906e-015 -7.15625e-015
lhumerus -37.3987 8.42828 86.4654
lradius 31.5442
lwrist -15.6444
lhand -11.6374 -33.7438
lfingers 7.12502
lthumb 14.4064 -4.26376
rfemur 7.0178 3.28936 19.7797
rtibia -4.77083e-015
rfoot -16.4431 -9.70275
rtoes 6.6331
lfemur 15.5706 -7.40225 -14.0297
ltibia -15.7678
lfoot -7.54857 24.0419
ltoes -2.9751
85
root -1.12353 18.202 5.68827 1.025 -5.42397 -3.72328
lowerback 0.106899 2.1614 1.14874
upperback -1.11934 2.88575 -0.530109
thorax -1.12198 1.42877 -1.2146
lowerneck -12.0166 -3.19573 2.26908
upperneck 21.8501 -5.99391 4.39106
head 8.9059 -2.17251 0.438086
rclavicle 3.56818e-014 -2.38542e-015
rhumerus -47.0402 -0.511151 -89.3074
rradius 39.9562
rwrist 16.0204
rhand -7.79477 -25.5024
rfingers 7.12502
rthumb 18.1063 -54.6797
lclavicle 3.56818e-014 -2.38542e-015
lhumerus -37.215 8.81106 86.338
lradius 31.1109
lwrist -16.1029
lhand -11.5371 -33.7637
lfingers 7.12502
lthumb 14.503 -4.29054
rfemur 7.0251 3.30139 19.7548
rtibia -2.06736e-014
rfoot -16.4513 -9.68549
rtoes 6.68742
lfemur 15.5518 -7.33539 -14.0492
ltibia -15.7303
lfoot -7.53817 23.9917
ltoes -3.07002
